<?xml version="1.0" encoding="UTF-8"?>
<svg xmlns="http://www.w3.org/2000/svg" xmlns:xlink="http://www.w3.org/1999/xlink" width="25px" height="25px" viewBox="0 0 25 25" version="1.1">
<g id="surface1">
<path style=" stroke:none;fill-rule:nonzero;fill:rgb(0%,0%,0%);fill-opacity:1;" d="M 11.355469 0.0234375 C 8.398438 0.324219 5.792969 1.546875 3.710938 3.597656 C 1.761719 5.519531 0.546875 7.898438 0.117188 10.636719 C 0.0351562 11.152344 0.0234375 11.390625 0.0195312 12.5 C 0.0195312 13.632812 0.0351562 13.835938 0.117188 14.375 C 0.550781 17.066406 1.710938 19.378906 3.597656 21.289062 C 5.519531 23.238281 7.898438 24.453125 10.636719 24.882812 C 11.152344 24.964844 11.390625 24.976562 12.5 24.980469 C 13.632812 24.980469 13.835938 24.964844 14.375 24.882812 C 17.066406 24.449219 19.378906 23.289062 21.289062 21.402344 C 23.238281 19.480469 24.453125 17.101562 24.882812 14.363281 C 24.964844 13.847656 24.976562 13.609375 24.980469 12.5 C 24.980469 11.367188 24.964844 11.164062 24.882812 10.625 C 24.449219 7.933594 23.289062 5.621094 21.402344 3.710938 C 19.484375 1.765625 17.085938 0.542969 14.382812 0.121094 C 13.925781 0.0507812 13.585938 0.0273438 12.667969 0.0195312 C 12.039062 0.0117188 11.445312 0.015625 11.355469 0.0234375 Z M 14.292969 0.328125 C 17.539062 0.824219 20.390625 2.527344 22.351562 5.136719 C 22.839844 5.796875 23.121094 6.25 23.515625 7.042969 C 24.125 8.265625 24.480469 9.390625 24.691406 10.808594 C 24.796875 11.480469 24.816406 13.105469 24.734375 13.832031 C 24.371094 17.003906 22.894531 19.796875 20.496094 21.851562 C 18.621094 23.457031 16.347656 24.445312 13.851562 24.734375 C 13.050781 24.824219 11.421875 24.796875 10.644531 24.671875 C 8.488281 24.324219 6.640625 23.523438 4.875 22.167969 C 4.402344 21.804688 3.296875 20.707031 2.898438 20.207031 C 1.554688 18.515625 0.660156 16.476562 0.328125 14.332031 C 0.203125 13.519531 0.175781 11.984375 0.265625 11.167969 C 0.660156 7.742188 2.390625 4.710938 5.136719 2.648438 C 5.800781 2.152344 6.253906 1.878906 7.0625 1.480469 C 8.242188 0.894531 9.484375 0.507812 10.714844 0.332031 C 11.574219 0.210938 11.550781 0.214844 12.6875 0.230469 C 13.476562 0.242188 13.867188 0.261719 14.292969 0.328125 Z M 14.292969 0.328125 "/>
<path style=" stroke:none;fill-rule:nonzero;fill:rgb(0%,0%,0%);fill-opacity:1;" d="M 9.066406 5.136719 C 7.253906 8.269531 2.972656 15.652344 2.867188 15.820312 L 2.785156 15.957031 L 5.242188 15.957031 L 7.8125 11.519531 C 9.230469 9.078125 10.394531 7.089844 10.402344 7.101562 C 10.414062 7.109375 11.101562 8.265625 11.933594 9.671875 L 13.441406 12.230469 L 14.640625 12.242188 L 15.839844 12.25 L 15.757812 12.117188 C 15.710938 12.042969 14.507812 9.945312 13.082031 7.457031 C 11.660156 4.972656 10.464844 2.917969 10.441406 2.886719 C 10.410156 2.855469 10.054688 3.429688 9.066406 5.136719 Z M 9.066406 5.136719 "/>
<path style=" stroke:none;fill-rule:nonzero;fill:rgb(0%,0%,0%);fill-opacity:1;" d="M 14.070312 3.960938 L 13.496094 5.042969 L 16.015625 9.464844 C 17.410156 11.894531 18.539062 13.890625 18.535156 13.898438 C 18.523438 13.902344 17.171875 13.929688 15.519531 13.953125 C 13.871094 13.984375 12.507812 14.015625 12.492188 14.035156 C 12.476562 14.050781 12.199219 14.503906 11.878906 15.042969 L 11.300781 16.019531 L 14.023438 16.035156 C 15.523438 16.039062 17.980469 16.039062 19.480469 16.035156 L 22.207031 16.019531 L 20.878906 13.707031 C 20.152344 12.4375 18.472656 9.5 17.144531 7.1875 C 15.820312 4.871094 14.714844 2.957031 14.691406 2.929688 C 14.660156 2.890625 14.5 3.152344 14.070312 3.960938 Z M 14.070312 3.960938 "/>
</g>
</svg>
